<svg xmlns="http://www.w3.org/2000/svg" width="24" height="24" viewBox="0 0 24 24"><defs><style>.a{fill:none;}.b{stroke:#000;stroke-width:0.2px;}</style></defs><g transform="translate(-616 -698)"><rect class="a" width="24" height="24" transform="translate(616 698)"/><path class="b" d="M2.442,16.667H7.878V10.743H5.925V8.789H7.878V6.348a2.444,2.444,0,0,1,2.442-2.442h2.442V5.86H10.808a.978.978,0,0,0-.977.977V8.789h2.842l-.326,1.953H9.831v5.925h4.395a2.444,2.444,0,0,0,2.442-2.442V2.442A2.444,2.444,0,0,0,14.226,0H2.442A2.444,2.444,0,0,0,0,2.442V14.226A2.444,2.444,0,0,0,2.442,16.667ZM.977,2.442A1.467,1.467,0,0,1,2.442.977H14.226a1.467,1.467,0,0,1,1.465,1.465V14.226a1.467,1.467,0,0,1-1.465,1.465H10.808V11.719h2.367l.651-3.906H10.808V6.836h2.93V2.93H10.319A3.422,3.422,0,0,0,6.9,6.348V7.813H4.948v3.906H6.9v3.972H2.442A1.467,1.467,0,0,1,.977,14.226Zm0,0" transform="translate(620 702)"/></g></svg>