<svg xmlns="http://www.w3.org/2000/svg" width="24" height="24" viewBox="0 0 24 24"><defs><style>.a{fill:none;}</style></defs><g transform="translate(-587 -704)"><rect class="a" width="24" height="24" transform="translate(587 704)"/><g transform="translate(591 708)"><path d="M12.309,0H4.691A4.7,4.7,0,0,0,0,4.691v7.617A4.7,4.7,0,0,0,4.691,17h7.617A4.7,4.7,0,0,0,17,12.309V4.691A4.7,4.7,0,0,0,12.309,0Zm3.183,12.309a3.187,3.187,0,0,1-3.183,3.183H4.691a3.187,3.187,0,0,1-3.183-3.183V4.691A3.187,3.187,0,0,1,4.691,1.508h7.617a3.187,3.187,0,0,1,3.183,3.183v7.617Z"/><path d="M45.348,40.97a4.38,4.38,0,1,0,4.38,4.38A4.385,4.385,0,0,0,45.348,40.97Zm0,7.252a2.872,2.872,0,1,1,2.872-2.872A2.875,2.875,0,0,1,45.348,48.222Z" transform="translate(-36.848 -36.85)"/><path d="M120.027,28.251a1.105,1.105,0,1,0,.782.324A1.11,1.11,0,0,0,120.027,28.251Z" transform="translate(-106.963 -25.41)"/></g></g></svg>