<svg width="40" height="40" viewBox="0 0 40 40" fill="none" xmlns="http://www.w3.org/2000/svg">
<circle cx="20" cy="20" r="20" fill="white" fill-opacity="0.2"/>
<path d="M27.853 28.133L23.7208 24.0018C24.8292 22.7277 25.5003 21.0654 25.5003 19.2486C25.5003 15.2492 22.2466 12 18.2502 12C14.2499 12 11 15.253 11 19.2486C11 23.2441 14.2537 26.4971 18.2502 26.4971C20.0674 26.4971 21.7301 25.8262 23.0044 24.718L27.1366 28.8492C27.2346 28.9472 27.3666 29 27.4948 29C27.623 29 27.7549 28.951 27.853 28.8492C28.049 28.6532 28.049 28.329 27.853 28.133ZM12.0142 19.2486C12.0142 15.8109 14.8117 13.0177 18.2464 13.0177C21.6849 13.0177 24.4786 15.8146 24.4786 19.2486C24.4786 22.6825 21.6849 25.4831 18.2464 25.4831C14.8117 25.4831 12.0142 22.6863 12.0142 19.2486Z" fill="white"/>
</svg>
