<svg xmlns="http://www.w3.org/2000/svg" width="24" height="24" viewBox="0 0 24 24"><defs><style>.a{fill:none;}.b{fill:#299bce;}</style></defs><rect class="a" width="24" height="24"/><g transform="translate(3.215 4.363)"><path class="b" d="M18.26,49.756a7.805,7.805,0,0,1-2.157.591,3.722,3.722,0,0,0,1.647-2.069,7.482,7.482,0,0,1-2.374.906A3.743,3.743,0,0,0,8.9,51.745a3.855,3.855,0,0,0,.087.854,10.6,10.6,0,0,1-7.716-3.916,3.744,3.744,0,0,0,1.15,5A3.7,3.7,0,0,1,.73,53.225v.041a3.761,3.761,0,0,0,3,3.678,3.736,3.736,0,0,1-.981.123A3.31,3.31,0,0,1,2.039,57a3.779,3.779,0,0,0,3.5,2.608A7.522,7.522,0,0,1,.9,61.208a7.012,7.012,0,0,1-.9-.051,10.539,10.539,0,0,0,5.743,1.68A10.581,10.581,0,0,0,16.4,52.184c0-.165-.006-.325-.014-.484A7.468,7.468,0,0,0,18.26,49.756Z" transform="translate(0 -48)"/></g></svg>